<svg xmlns="http://www.w3.org/2000/svg" width="180.045" height="78.786" viewBox="0 0 180.045 78.786"><defs><style>.cls-1{fill:#a6a6a6}.cls-2{fill:#fff}.cls-3{filter:url(#Path_410)}</style><filter id="Path_410" x="0" y="0" width="180.045" height="78.786" filterUnits="userSpaceOnUse"><feOffset dy="3"/><feGaussianBlur stdDeviation="5" result="blur"/><feFlood flood-opacity=".251"/><feComposite operator="in" in2="blur"/><feComposite in="SourceGraphic"/></filter></defs><g id="Download_on_the_App_Store_Badge_US-UK_RGB_blk_092917" transform="translate(14.454 11.397)"><g id="Group_2657" data-name="Group 2657" transform="translate(-.481 -.426)"><g id="Group_2655" data-name="Group 2655"><path id="Path_409" data-name="Path 409" class="cls-1" d="M139.986 0H10.728c-.389 0-.775.01-1.168.016a16.8 16.8 0 0 0-2.548.227 8.472 8.472 0 0 0-2.416.8 8.183 8.183 0 0 0-2.057 1.5 7.955 7.955 0 0 0-1.5 2.06 8.39 8.39 0 0 0-.792 2.415 16.514 16.514 0 0 0-.228 2.545c-.012.39-.013.781-.019 1.17v29.379c.006.395.007.777.019 1.172a16.514 16.514 0 0 0 .228 2.545 8.373 8.373 0 0 0 .794 2.42 7.89 7.89 0 0 0 1.5 2.052A7.975 7.975 0 0 0 4.6 49.8a8.517 8.517 0 0 0 2.416.8 17.1 17.1 0 0 0 2.547.225c.393.009.779.014 1.168.014h130.633c.387 0 .785 0 1.172-.014a16.878 16.878 0 0 0 2.542-.225 8.649 8.649 0 0 0 2.425-.8 7.98 7.98 0 0 0 2.056-1.5 8.127 8.127 0 0 0 1.5-2.052 8.393 8.393 0 0 0 .787-2.42 17.17 17.17 0 0 0 .236-2.544v-1.172c.01-.462.01-.921.01-1.39v-26.6c0-.465 0-.927-.01-1.388V9.563a17.162 17.162 0 0 0-.236-2.545 8.411 8.411 0 0 0-.787-2.419A8.219 8.219 0 0 0 147.5 1.04a8.6 8.6 0 0 0-2.425-.8 16.579 16.579 0 0 0-2.542-.225c-.385-.003-.782-.015-1.169-.015h-1.378z"/><g class="cls-3" transform="translate(-13.97 -10.97)"><path id="Path_410-2" data-name="Path 410" d="M10.508 49.658c-.388 0-.766 0-1.151-.014a16.109 16.109 0 0 1-2.378-.208 7.475 7.475 0 0 1-2.108-.7 6.879 6.879 0 0 1-1.778-1.3 6.785 6.785 0 0 1-1.3-1.781 7.309 7.309 0 0 1-.693-2.108 15.867 15.867 0 0 1-.212-2.391c-.008-.269-.019-1.165-.019-1.165V10.529s.011-.882.019-1.141A15.812 15.812 0 0 1 1.1 7a7.352 7.352 0 0 1 .692-2.12A6.853 6.853 0 0 1 3.086 3.1 7.082 7.082 0 0 1 4.87 1.8a7.4 7.4 0 0 1 2.1-.694A15.979 15.979 0 0 1 9.36.891l1.148-.016h130.768l1.162.016a15.724 15.724 0 0 1 2.362.209 7.544 7.544 0 0 1 2.126.7A7.126 7.126 0 0 1 150 4.884a7.36 7.36 0 0 1 .681 2.1 16.606 16.606 0 0 1 .221 2.407v1.135c.01.478.01.933.01 1.392v26.695c0 .463 0 .915-.01 1.371v1.186a16.273 16.273 0 0 1-.217 2.364 7.33 7.33 0 0 1-.687 2.13 6.989 6.989 0 0 1-1.292 1.767 6.888 6.888 0 0 1-1.781 1.3 7.447 7.447 0 0 1-2.122.7 15.923 15.923 0 0 1-2.378.208c-.373.009-.763.014-1.142.014h-1.379z" transform="translate(14.13 11.13)"/></g></g><g id="_Group_" data-name="&lt;Group&gt;" transform="translate(11.729 12.429)"><g id="_Group_2" data-name="&lt;Group&gt;"><g id="_Group_3" data-name="&lt;Group&gt;"><path id="_Path_" data-name="&lt;Path&gt;" class="cls-2" d="M27.377 21.416a5.821 5.821 0 0 1 2.772-4.884 5.958 5.958 0 0 0-4.695-2.538c-1.975-.207-3.89 1.182-4.9 1.182-1.026 0-2.576-1.161-4.244-1.127a6.252 6.252 0 0 0-5.261 3.209c-2.275 3.939-.578 9.727 1.6 12.911 1.09 1.559 2.364 3.3 4.032 3.239 1.632-.068 2.241-1.04 4.21-1.04 1.951 0 2.523 1.04 4.224 1 1.751-.028 2.854-1.566 3.906-3.14a12.894 12.894 0 0 0 1.786-3.638 5.625 5.625 0 0 1-3.43-5.174z" transform="translate(-9.972 -7.794)"/><path id="_Path_2" data-name="&lt;Path&gt;" class="cls-2" d="M22.609 12.826A5.731 5.731 0 0 0 23.92 8.72a5.831 5.831 0 0 0-3.773 1.952 5.453 5.453 0 0 0-1.347 3.954 4.821 4.821 0 0 0 3.809-1.8z" transform="translate(-8.417 -8.72)"/></g></g><g id="Group_2656" data-name="Group 2656" transform="translate(40.11 10.764)"><path id="Path_411" data-name="Path 411" class="cls-2" d="M43.69 28.737h-5.567l-1.337 3.948h-2.359L39.7 18.078h2.45l5.274 14.607h-2.4zm-4.99-1.822h4.413l-2.176-6.407h-.061z" transform="translate(-34.427 -17.835)"/><path id="Path_412" data-name="Path 412" class="cls-2" d="M56.663 26.785c0 3.309-1.771 5.436-4.444 5.436a3.61 3.61 0 0 1-3.351-1.863h-.051v5.275h-2.186V21.459h2.116v1.771h.04a3.778 3.778 0 0 1 3.391-1.883c2.703.001 4.485 2.137 4.485 5.438zm-2.247 0c0-2.156-1.114-3.574-2.814-3.574-1.67 0-2.794 1.447-2.794 3.574 0 2.146 1.123 3.583 2.794 3.583 1.698-.001 2.814-1.408 2.814-3.583z" transform="translate(-32.276 -17.259)"/><path id="Path_413" data-name="Path 413" class="cls-2" d="M66.628 26.785c0 3.309-1.771 5.436-4.444 5.436a3.61 3.61 0 0 1-3.351-1.863h-.051v5.275H56.6V21.459h2.116v1.771h.04a3.778 3.778 0 0 1 3.391-1.883c2.699.001 4.481 2.137 4.481 5.438zm-2.247 0c0-2.156-1.114-3.574-2.814-3.574-1.67 0-2.794 1.447-2.794 3.574 0 2.146 1.123 3.583 2.794 3.583 1.7 0 2.814-1.407 2.814-3.583z" transform="translate(-30.52 -17.259)"/><path id="Path_414" data-name="Path 414" class="cls-2" d="M72.046 28.651c.162 1.448 1.569 2.4 3.492 2.4 1.842 0 3.168-.951 3.168-2.257 0-1.134-.8-1.813-2.693-2.278l-1.893-.456c-2.682-.648-3.927-1.9-3.927-3.938 0-2.52 2.2-4.251 5.315-4.251 3.086 0 5.2 1.731 5.274 4.251h-2.207c-.132-1.458-1.337-2.338-3.1-2.338s-2.966.89-2.966 2.186c0 1.033.77 1.64 2.652 2.105l1.609.4c3 .709 4.242 1.913 4.242 4.049 0 2.733-2.177 4.444-5.639 4.444-3.239 0-5.426-1.671-5.568-4.313z" transform="translate(-28.191 -17.871)"/><path id="Path_415" data-name="Path 415" class="cls-2" d="M83.907 19.3v2.52h2.025v1.731h-2.025v5.871c0 .912.405 1.337 1.3 1.337a6.83 6.83 0 0 0 .719-.051v1.721a6 6 0 0 1-1.214.1c-2.156 0-3-.81-3-2.875v-6.1h-1.549V21.82h1.548V19.3z" transform="translate(-26.366 -17.619)"/><path id="Path_416" data-name="Path 416" class="cls-2" d="M86.065 26.787c0-3.351 1.973-5.456 5.051-5.456s5.052 2.105 5.052 5.456-1.954 5.456-5.052 5.456-5.051-2.096-5.051-5.456zm7.875 0c0-2.3-1.053-3.655-2.825-3.655s-2.823 1.367-2.823 3.655c0 2.308 1.052 3.654 2.823 3.654s2.825-1.346 2.825-3.654z" transform="translate(-25.326 -17.261)"/><path id="Path_417" data-name="Path 417" class="cls-2" d="M96.186 21.459h2.085v1.813h.051a2.54 2.54 0 0 1 2.562-1.924 3.371 3.371 0 0 1 .749.082v2.045a3.056 3.056 0 0 0-.982-.132 2.2 2.2 0 0 0-2.278 2.45v6.317h-2.187z" transform="translate(-23.542 -17.259)"/><path id="Path_418" data-name="Path 418" class="cls-2" d="M110.824 28.984c-.294 1.933-2.177 3.26-4.586 3.26-3.1 0-5.021-2.076-5.021-5.406s1.933-5.507 4.929-5.507c2.946 0 4.8 2.024 4.8 5.253v.749h-7.522v.132a2.774 2.774 0 0 0 2.865 3.016 2.409 2.409 0 0 0 2.459-1.5zm-7.389-3.178h5.324a2.561 2.561 0 0 0-2.612-2.7 2.7 2.7 0 0 0-2.712 2.7z" transform="translate(-22.656 -17.261)"/></g></g></g><g id="_Group_4" data-name="&lt;Group&gt;" transform="translate(52.82 10.449)"><g id="Group_2658" data-name="Group 2658"><path id="Path_419" data-name="Path 419" class="cls-2" d="M38.206 8.732a3.1 3.1 0 0 1 3.3 3.487c0 2.242-1.212 3.531-3.3 3.531h-2.535V8.732zm-1.445 6.026h1.323a2.207 2.207 0 0 0 2.316-2.524 2.213 2.213 0 0 0-2.315-2.51h-1.324z" transform="translate(-35.671 -8.386)"/><path id="Path_420" data-name="Path 420" class="cls-2" d="M41.682 12.856a2.509 2.509 0 1 1 5 0 2.51 2.51 0 1 1-5 0zm3.92 0c0-1.148-.516-1.82-1.421-1.82s-1.42.671-1.42 1.82.511 1.824 1.42 1.824 1.421-.671 1.421-1.824z" transform="translate(-34.613 -8.142)"/><path id="Path_421" data-name="Path 421" class="cls-2" d="M52.455 15.491h-1.084l-1.095-3.9h-.083l-1.09 3.9h-1.074l-1.46-5.3h1.06l.949 4.042h.078l1.089-4.042h1l1.089 4.042h.083l.944-4.042h1.045z" transform="translate(-33.75 -8.127)"/><path id="Path_422" data-name="Path 422" class="cls-2" d="M53.854 10.211h1.006v.841h.078a1.586 1.586 0 0 1 1.581-.944 1.723 1.723 0 0 1 1.833 1.97v3.429h-1.046v-3.166c0-.851-.37-1.274-1.143-1.274a1.215 1.215 0 0 0-1.263 1.342v3.1h-1.046z" transform="translate(-32.466 -8.143)"/><path id="Path_423" data-name="Path 423" class="cls-2" d="M59.094 8.437h1.045V15.8h-1.045z" transform="translate(-31.543 -8.437)"/><path id="Path_424" data-name="Path 424" class="cls-2" d="M61.22 12.856a2.509 2.509 0 1 1 5 0 2.51 2.51 0 1 1-5 0zm3.92 0c0-1.148-.516-1.82-1.421-1.82s-1.42.671-1.42 1.82.511 1.824 1.42 1.824 1.421-.671 1.421-1.824z" transform="translate(-31.17 -8.143)"/><path id="Path_425" data-name="Path 425" class="cls-2" d="M66.4 14.009c0-.953.71-1.5 1.97-1.581l1.435-.083v-.457c0-.559-.37-.875-1.084-.875-.583 0-.988.214-1.1.589h-1.016c.107-.91.963-1.493 2.164-1.493 1.328 0 2.077.661 2.077 1.78v3.619H69.84v-.744h-.083a1.782 1.782 0 0 1-1.591.832 1.6 1.6 0 0 1-1.766-1.587zm3.4-.453v-.443l-1.293.083c-.729.049-1.06.3-1.06.764s.414.754.982.754a1.249 1.249 0 0 0 1.371-1.158z" transform="translate(-30.255 -8.142)"/><path id="Path_426" data-name="Path 426" class="cls-2" d="M71.348 13.151c0-1.674.86-2.734 2.2-2.734a1.746 1.746 0 0 1 1.624.929h.078V8.437h1.045V15.8h-1v-.837h-.085a1.838 1.838 0 0 1-1.663.924c-1.347.002-2.199-1.059-2.199-2.736zm1.08 0c0 1.123.53 1.8 1.415 1.8s1.425-.686 1.425-1.795-.55-1.8-1.425-1.8-1.415.681-1.415 1.795z" transform="translate(-29.383 -8.437)"/><path id="Path_427" data-name="Path 427" class="cls-2" d="M79.232 12.856a2.509 2.509 0 1 1 5 0 2.51 2.51 0 1 1-5 0zm3.92 0c0-1.148-.516-1.82-1.421-1.82s-1.42.671-1.42 1.82.511 1.824 1.42 1.824 1.421-.671 1.421-1.824z" transform="translate(-27.995 -8.142)"/><path id="Path_428" data-name="Path 428" class="cls-2" d="M84.669 10.211h1.006v.841h.078a1.586 1.586 0 0 1 1.581-.944 1.723 1.723 0 0 1 1.833 1.97v3.429h-1.045v-3.166c0-.851-.37-1.274-1.143-1.274a1.215 1.215 0 0 0-1.265 1.342v3.1h-1.045z" transform="translate(-27.035 -8.143)"/><path id="Path_429" data-name="Path 429" class="cls-2" d="M93.8 9.074v1.343h1.148v.88H93.8v2.724c0 .555.229.8.749.8a3.489 3.489 0 0 0 .4-.024v.871a3.429 3.429 0 0 1-.569.053c-1.162 0-1.625-.409-1.625-1.43V11.3h-.841v-.88h.841V9.074z" transform="translate(-25.759 -8.325)"/><path id="Path_430" data-name="Path 430" class="cls-2" d="M95.7 8.437h1.036v2.919h.083a1.63 1.63 0 0 1 1.615-.949 1.745 1.745 0 0 1 1.824 1.975V15.8h-1.042v-3.161c0-.846-.394-1.274-1.133-1.274a1.237 1.237 0 0 0-1.334 1.343V15.8H95.7z" transform="translate(-25.09 -8.437)"/><path id="Path_431" data-name="Path 431" class="cls-2" d="M105.475 14.077a2.15 2.15 0 0 1-2.3 1.532 2.406 2.406 0 0 1-2.447-2.734 2.443 2.443 0 0 1 2.442-2.767c1.474 0 2.363 1.007 2.363 2.67v.365H101.8v.057a1.4 1.4 0 0 0 1.411 1.517 1.27 1.27 0 0 0 1.26-.642zM101.8 12.37h2.675A1.278 1.278 0 0 0 103.17 11a1.355 1.355 0 0 0-1.37 1.37z" transform="translate(-24.208 -8.143)"/></g></g></g></svg>